<?xml version="1.0" standalone="no"?>
<!DOCTYPE svg PUBLIC "-//W3C//DTD SVG 20010904//EN"
 "http://www.w3.org/TR/2001/REC-SVG-20010904/DTD/svg10.dtd">
<svg version="1.0" xmlns="http://www.w3.org/2000/svg"
 width="460.000000pt" height="460.000000pt" viewBox="0 0 460.000000 460.000000"
 preserveAspectRatio="xMidYMid meet">
<metadata>
Created by potrace 1.11, written by Peter Selinger 2001-2013
</metadata>
<g transform="translate(0.000000,460.000000) scale(0.100000,-0.100000)"
fill="#000000" stroke="none">
<path d="M2123 4359 c-342 -30 -664 -139 -962 -324 -105 -66 -263 -191 -394
-314 -96 -89 -162 -136 -152 -109 6 16 -12 39 -46 62 -27 17 -27 17 -61 -26
-180 -226 -330 -540 -398 -833 -44 -190 -54 -293 -54 -520 0 -178 4 -244 22
-345 42 -248 99 -425 207 -645 288 -588 828 -1026 1461 -1184 213 -53 318 -66
554 -65 236 0 344 12 554 65 632 158 1173 597 1461 1184 108 220 171 421 212
670 24 153 24 497 0 650 -50 306 -144 569 -293 815 -77 128 -161 240 -179 240
-28 0 -30 -1 -29 -15 1 -8 -7 -17 -17 -20 -11 -4 -19 -11 -19 -16 0 -26 -120
34 -139 68 -10 20 -197 181 -294 253 -300 225 -701 376 -1092 409 -135 12
-208 12 -342 0z m612 -785 c72 -9 142 -22 157 -30 14 -8 44 -14 66 -14 23 0
53 -5 69 -12 16 -7 98 -15 199 -18 191 -6 166 3 239 -87 15 -18 40 -41 56 -50
43 -26 36 -40 -28 -54 l-56 -13 -31 36 c-51 58 -67 63 -138 38 -34 -12 -80
-32 -102 -45 -51 -29 -108 -39 -208 -37 -67 2 -88 7 -150 38 -88 44 -108 60
-108 89 0 27 -36 61 -72 70 -34 9 -39 -13 -8 -33 11 -7 20 -19 20 -28 0 -9
-34 -52 -75 -97 -76 -83 -87 -105 -60 -127 24 -20 18 -38 -30 -89 -54 -58 -58
-79 -9 -46 20 14 43 25 51 25 19 0 63 49 63 70 0 10 -7 23 -15 30 -34 28 -9
88 55 133 35 24 71 21 117 -10 21 -16 74 -52 116 -81 42 -29 82 -63 89 -76 12
-22 180 -139 252 -176 37 -19 108 -97 210 -233 46 -62 100 -129 120 -150 24
-25 34 -43 29 -52 -5 -7 -44 -41 -88 -74 -44 -33 -111 -89 -149 -126 -38 -36
-80 -68 -93 -71 -13 -4 -30 -19 -39 -35 -18 -36 -25 -36 -52 1 -40 53 -96 75
-188 73 -44 -1 -93 -7 -110 -13 -25 -10 -31 -9 -45 8 -16 20 -80 32 -191 34
-37 1 -48 5 -56 23 -8 17 -27 26 -74 38 -60 15 -150 33 -193 40 -27 4 -25 61
3 114 48 90 61 121 72 163 7 25 21 66 32 92 13 30 19 57 15 76 -3 16 1 51 9
77 8 27 12 50 9 53 -2 3 -19 -6 -37 -20 l-33 -25 -35 22 c-19 12 -48 26 -65
32 -16 6 -64 28 -105 50 -54 29 -78 47 -84 67 -14 37 6 54 93 76 39 11 94 31
122 45 l51 25 44 -26 c37 -22 44 -23 44 -9 0 22 -49 65 -74 65 -35 -1 -109
-24 -138 -43 -60 -41 -280 -55 -309 -21 -6 8 -17 14 -25 14 -33 0 -87 37 -104
71 -11 21 -32 41 -50 49 -37 15 -49 7 -27 -18 27 -29 21 -45 -43 -121 -33 -40
-60 -75 -60 -79 0 -4 7 -17 15 -30 19 -26 12 -42 -44 -97 -23 -21 -41 -47 -41
-57 0 -22 13 -23 30 -2 8 8 33 27 57 41 55 32 81 77 60 101 -27 32 -26 49 5
91 45 62 91 66 165 15 21 -14 63 -39 93 -54 30 -15 65 -41 76 -57 12 -16 78
-62 146 -101 69 -40 141 -88 162 -106 33 -31 36 -39 36 -86 0 -59 -25 -111
-93 -193 -49 -60 -56 -91 -57 -249 0 -71 -3 -128 -8 -128 -4 0 -15 9 -25 20
-17 20 -17 20 -57 -6 l-40 -26 -40 20 c-31 15 -49 18 -70 12 -75 -21 -104 -16
-160 28 -44 35 -59 42 -82 37 -22 -5 -32 -2 -46 15 -19 23 -111 60 -150 60
-12 0 -37 7 -53 16 -24 12 -34 13 -45 4 -11 -10 -15 -9 -20 4 -11 29 4 88 36
139 17 27 39 82 49 121 21 80 35 226 22 226 -10 0 -21 -35 -21 -72 0 -46 -69
-208 -89 -208 -4 0 -25 9 -46 20 -28 14 -42 28 -45 47 -4 23 -16 30 -90 54
-47 16 -110 40 -140 53 -30 14 -91 35 -134 48 -84 25 -103 41 -61 52 22 6 24
10 19 34 -4 15 -11 30 -17 33 -13 9 14 69 30 69 7 0 13 -8 13 -18 0 -11 9 -27
20 -37 19 -18 20 -17 20 2 0 10 -7 28 -15 39 -25 33 -17 63 28 111 23 26 51
55 63 65 11 10 66 63 122 118 56 55 106 100 111 100 6 0 29 13 53 29 28 19 61
31 93 34 28 3 104 14 170 26 247 43 574 61 681 36 22 -5 34 -2 43 9 18 22 251
22 426 0z m627 -281 c50 -36 51 -37 142 -34 50 1 105 4 121 7 24 4 36 -1 59
-25 29 -30 29 -32 26 -133 -5 -174 -8 -210 -17 -285 -7 -57 -6 -76 4 -86 11
-11 7 -21 -22 -60 -37 -49 -54 -55 -92 -34 -28 15 -112 116 -150 177 -15 25
-61 82 -103 128 -55 61 -85 85 -112 92 -45 13 -152 74 -190 109 -33 29 -36 66
-9 81 11 5 48 17 84 25 62 14 105 31 157 60 36 21 47 19 102 -22z m-2117 -793
c4 -6 21 -8 41 -4 l35 6 -7 -63 c-6 -65 -23 -97 -43 -85 -14 9 -14 41 -1 66
12 22 3 50 -15 50 -6 0 -20 9 -30 20 -16 17 -16 20 -2 20 9 0 19 -5 22 -10z
m1055 -120 c0 -10 -4 -22 -10 -25 -6 -4 -10 7 -10 25 0 18 4 29 10 25 6 -3 10
-15 10 -25z m-1050 -53 c0 -4 -9 -3 -20 3 -11 6 -20 15 -20 20 0 6 9 5 20 -2
11 -7 20 -16 20 -21z m330 -3 c0 -8 -9 -14 -20 -14 -19 0 -27 19 -14 33 10 9
34 -4 34 -19z m895 2 c12 -13 28 -25 36 -28 10 -4 11 -9 3 -17 -8 -9 -14 -8
-24 4 -7 8 -22 15 -34 15 -31 0 -50 16 -43 34 9 23 36 20 62 -8z m-253 -101
c9 -20 9 -28 -1 -38 -15 -15 -31 6 -31 41 0 30 18 28 32 -3z m-762 -32 c0 -18
-29 -16 -36 2 -4 8 -3 23 1 33 6 16 7 16 21 -2 8 -11 14 -26 14 -33z m861 27
c21 -12 26 -45 8 -55 -15 -10 -59 34 -52 51 6 17 18 18 44 4z m-1166 -1392
c385 -291 868 -428 1333 -377 231 25 450 91 662 200 184 95 300 180 460 336
74 73 138 133 141 133 4 0 9 -7 13 -15 4 -10 14 -14 32 -11 19 4 24 2 20 -10
-3 -8 1 -14 10 -14 8 0 17 -6 20 -14 18 -48 -181 -266 -373 -409 -418 -310
-951 -440 -1478 -361 -452 68 -886 302 -1155 622 -88 105 -97 128 -63 157 74
62 52 70 192 -68 69 -68 153 -144 186 -169z"/>
<path d="M970 2950 c0 -17 34 -50 52 -50 11 0 -25 59 -39 65 -8 2 -13 -4 -13
-15z"/>
</g>
</svg>
